Coordinates
version=1
nRows=37
nColumns=30
inDegrees=yes

Units are S.I. units (second, meters, Newtons, ...)
Angles are in degrees.

endheader
time	floatyaw	floatroll	floatpitch	floatx	floaty	floatz	pro_sup_l	deviation_l	flexion_l	cmc_flexion_l	cmc_abduction_l	mp_flexion_l	ip_flexion_l	2mcp_flexion_l	2mcp_abduction_l	2pm_flexion_l	2md_flexion_l	3mcp_flexion_l	3mcp_abduction_l	3pm_flexion_l	3md_flexion_l	4mcp_flexion_l	4mcp_abduction_l	4pm_flexion_l	4md_flexion_l	5mcp_flexion_l	5mcp_abduction_l	5pm_flexion_l	5md_flexion_l
-0.495000	-1.782892	-2.032873	94.941017	0.011096	-0.258419	0.033003	89.003036	5.045835	3.828430	18.018989	7.260687	-15.347765	-22.198109	24.770531	6.664446	27.781445	18.827159	12.885943	4.669829	31.177624	22.898289	0.900865	-3.678003	49.041637	33.298865	-10.750414	-9.082121	51.398357	41.509035
-0.485000	-1.782892	-2.032873	94.941017	0.014159	-0.256622	0.036186	88.679332	5.844575	4.440620	17.039580	7.761500	-15.180507	-21.416577	25.991516	6.767385	26.860433	18.308953	13.910837	4.796436	30.544619	22.878854	1.582827	-3.665450	48.492573	33.152799	-9.010965	-9.170381	49.874357	40.450173
-0.475000	-1.782892	-2.032873	94.941017	0.017524	-0.254845	0.039673	88.363009	6.733946	4.985020	16.044815	8.303149	-15.054299	-20.715125	27.333585	6.856401	25.900974	17.766643	15.148622	4.900924	29.786673	22.772543	2.339666	-3.651621	47.886431	33.053499	-7.233876	-9.155254	48.377679	39.513883
-0.465000	-1.782892	-2.032873	94.941017	0.021158	-0.253115	0.043455	88.100015	7.700321	5.439381	15.046235	8.876573	-14.962460	-20.084068	28.719508	6.937333	24.962339	17.235952	16.545578	4.969877	28.918837	22.588378	3.191318	-3.620128	47.239720	32.998146	-5.500919	-9.048393	46.939103	38.719484
-0.455000	-1.782892	-2.032873	94.941017	0.025048	-0.251416	0.047519	87.944468	8.738626	5.805596	14.063796	9.458002	-14.890502	-19.508901	30.066587	7.021162	24.105151	16.750437	18.017230	5.003286	27.996332	22.354837	4.139700	-3.562492	46.582227	32.974499	-3.920378	-8.881794	45.614150	38.076593
-0.445000	-1.782892	-2.032873	94.941017	0.029210	-0.249711	0.051846	87.937998	9.846292	6.110331	13.120196	10.012478	-14.821491	-18.973563	31.313885	7.118632	23.374475	16.332762	19.481207	5.013607	27.092114	22.106370	5.156187	-3.480967	45.951986	32.971967	-2.591231	-8.696402	44.462820	37.584234
-0.435000	-1.782892	-2.032873	94.941017	0.033659	-0.247976	0.056416	88.092672	11.012240	6.396608	12.235252	10.502836	-14.744448	-18.467492	32.436505	7.234997	22.789592	15.989320	20.885061	5.019572	26.269317	21.869365	6.191468	-3.386547	45.378811	32.986251	-1.570733	-8.530619	43.526487	37.228380
-0.425000	-1.782892	-2.032873	94.941017	0.038396	-0.246222	0.061204	88.387261	12.210040	6.710531	11.422181	10.902153	-14.659635	-17.992030	33.442633	7.368182	22.344447	15.711542	22.217037	5.038139	25.562682	21.655840	7.200736	-3.293881	44.867602	33.018964	-0.861399	-8.412860	42.817215	36.983570
-0.415000	-1.782892	-2.032873	94.941017	0.043400	-0.244506	0.066184	88.778419	13.401002	7.090381	10.685552	11.204319	-14.576625	-17.560335	34.358018	7.511523	22.017047	15.483797	23.498652	5.078582	24.974334	21.467030	8.167297	-3.215820	44.393375	33.076512	-0.419732	-8.359189	42.321605	36.820351
-0.405000	-1.782892	-2.032873	94.941017	0.048639	-0.242909	0.071332	89.220116	14.545228	7.562110	10.020746	11.427614	-14.506831	-17.189621	35.207392	7.659096	21.781924	15.293691	24.765778	5.141090	24.482143	21.302967	9.110108	-3.160037	43.912405	33.169755	-0.177706	-8.373846	42.012065	36.715262
-0.395000	-1.782892	-2.032873	94.941017	0.054085	-0.241510	0.076628	89.681759	15.613155	8.139464	9.416043	11.610245	-14.456194	-16.891068	36.001458	7.809938	21.619906	15.139355	26.047137	5.219436	24.055933	21.171571	10.071146	-3.128807	43.385075	33.312509	-0.064963	-8.450342	41.857627	36.658029
-0.385000	-1.782892	-2.032873	94.941017	0.059716	-0.240363	0.082049	90.157561	16.590490	8.824948	8.857849	11.800781	-14.422770	-16.664311	36.733180	7.968229	21.522735	15.030700	27.348061	5.305281	23.674859	21.091568	11.090707	-3.121101	42.799608	33.516604	-0.023511	-8.573248	41.830419	36.652294
-0.375000	-1.782892	-2.032873	94.941017	0.065503	-0.239496	0.087579	90.664737	17.474546	9.610676	8.336565	12.047469	-14.399400	-16.498881	37.382200	8.139266	21.492871	14.984960	28.645216	5.391526	23.338192	21.086954	12.185800	-3.134983	42.184393	33.784217	-0.012691	-8.722237	41.908043	36.709972
-0.365000	-1.782892	-2.032873	94.941017	0.071407	-0.238916	0.093197	91.233409	18.265934	10.481038	7.848846	12.389240	-14.378167	-16.379256	37.924118	8.323837	21.539463	15.018878	29.894550	5.473600	23.064475	21.175904	13.344320	-3.168882	41.601886	34.101912	-0.006554	-8.878236	42.073803	36.842681
-0.355000	-1.782892	-2.032873	94.941017	0.077372	-0.238614	0.098887	91.894362	18.962142	11.418073	7.394386	12.849963	-14.353171	-16.288861	38.341146	8.514915	21.672018	15.140944	31.049536	5.549188	22.880716	21.361239	14.537082	-3.221778	41.126792	34.441591	0.012792	-9.028892	42.315792	37.054537
-0.345000	-1.782892	-2.032873	94.941017	0.083340	-0.238574	0.104631	92.670044	19.557109	12.407487	6.970150	13.436985	-14.320497	-16.211348	38.630172	8.699183	21.894786	15.347492	32.081236	5.617368	22.809166	21.629494	15.738545	-3.293130	40.819293	34.769773	0.063408	-9.170123	42.624023	37.338677
-0.335000	-1.782892	-2.032873	94.941017	0.089266	-0.238774	0.110409	93.570493	20.045579	13.442598	6.567347	14.144108	-14.276637	-16.130856	38.803883	8.862758	22.205165	15.625326	32.989748	5.677730	22.859281	21.960108	16.942836	-3.382954	40.705682	35.060840	0.171971	-9.303087	42.985114	37.677296
-0.325000	-1.782892	-2.032873	94.941017	0.095127	-0.239198	0.116195	94.592728	20.427643	14.525284	6.174027	14.957509	-14.217334	-16.033429	38.882964	8.997707	22.596688	15.959876	33.801123	5.729611	23.026860	22.338920	18.166136	-3.491733	40.773876	35.306865	0.379911	-9.429183	43.376875	38.044519
-0.315000	-1.782892	-2.032873	94.941017	0.100918	-0.239838	0.121958	95.721965	20.709935	15.664093	5.781504	15.861538	-14.137945	-15.909751	38.882881	9.105468	23.063354	16.343943	34.552552	5.771636	23.297115	22.767011	19.435575	-3.619796	40.983775	35.518839	0.742584	-9.546913	43.767434	38.412219
-0.305000	-1.782892	-2.032873	94.941017	0.106639	-0.240687	0.127654	96.934510	20.903723	16.869257	5.390243	16.841295	-14.034888	-15.757505	38.803677	9.195417	23.600893	16.781223	35.275209	5.801857	23.647815	23.259576	20.772229	-3.766273	41.286377	35.719433	1.317794	-9.652256	44.121698	38.758561
-0.295000	-1.782892	-2.032873	94.941017	0.112279	-0.241743	0.133235	98.202906	21.022610	18.144783	5.011956	17.881248	-13.907091	-15.581667	38.630326	9.279802	24.203734	17.282419	35.983968	5.818615	24.051610	23.836417	22.177967	-3.928252	41.642703	35.931944	2.145910	-9.741132	44.412906	39.076795
-0.285000	-1.782892	-2.032873	94.941017	0.117798	-0.243003	0.138649	99.502810	21.081873	19.480267	4.667452	18.962511	-13.756558	-15.392485	38.343916	9.368179	24.860992	17.857162	36.677620	5.821843	24.479255	24.510318	23.632876	-4.100835	42.034780	36.171265	3.230876	-9.811645	44.633117	39.379877
-0.275000	-1.782892	-2.032873	94.941017	0.123132	-0.244461	0.143844	100.819262	21.099117	20.847316	4.381581	20.062973	-13.587807	-15.202092	37.935878	9.464225	25.556551	18.507797	37.346984	5.814094	24.905506	25.279521	25.104098	-4.278345	42.465336	36.440565	4.533798	-9.865160	44.796855	39.697300
-0.265000	-1.782892	-2.032873	94.941017	0.128211	-0.246118	0.148779	102.149139	21.094311	22.204202	4.177044	21.162430	-13.406223	-15.020972	37.415787	9.565844	26.275093	19.229132	37.985112	5.800510	25.317062	26.127290	26.561067	-4.456086	42.948655	36.734096	5.984971	-9.906542	44.936262	40.064231
-0.255000	-1.782892	-2.032873	94.941017	0.132982	-0.247979	0.153433	103.497774	21.087624	23.507296	4.068833	22.250389	-13.215704	-14.855305	36.809246	9.667436	27.010312	20.013077	38.594248	5.787462	25.718824	27.027705	27.988731	-4.631472	43.499045	37.043776	7.508949	-9.943672	45.090912	40.507856
-0.245000	-1.782892	-2.032873	94.941017	0.137425	-0.250055	0.157804	104.870765	21.095357	24.722997	4.061019	23.330868	-13.016495	-14.705955	36.150021	9.762278	27.768523	20.853061	39.186811	5.780410	26.133678	27.954064	29.391438	-4.803636	44.123175	37.365750	9.048363	-9.985906	45.297818	41.038203
-0.235000	-1.782892	-2.032873	94.941017	0.141548	-0.252342	0.161900	106.265328	21.126220	25.833511	4.147109	24.419251	-12.804424	-14.569236	35.472948	9.843797	28.563712	21.743687	39.780837	5.782158	26.593796	28.885793	30.785780	-4.971792	44.818743	37.703383	10.573355	-10.041483	45.585860	41.648072
-0.225000	-1.782892	-2.032873	94.941017	0.145368	-0.254820	0.165730	107.666766	21.180564	26.834189	4.313944	25.531335	-12.572422	-14.438859	34.810626	9.905911	29.406812	22.676144	40.393004	5.792446	27.126828	29.811581	32.187657	-5.133593	45.577836	38.065580	12.074309	-10.114861	45.975491	42.320612
-0.215000	-1.782892	-2.032873	94.941017	0.148892	-0.257443	0.169296	109.052666	21.253355	27.725645	4.547407	26.670615	-12.314145	-14.308319	34.192775	9.943481	30.296768	23.634539	41.033581	5.809049	27.744438	30.729407	33.602225	-5.284751	46.391964	38.462423	13.547065	-10.205530	46.481830	43.038618
-0.205000	-1.782892	-2.032873	94.941017	0.152110	-0.260153	0.172592	110.401579	21.338719	28.506318	4.836982	27.821743	-12.028400	-14.173394	33.646572	9.953315	31.219294	24.597931	41.705786	5.829696	28.440440	31.645849	35.022479	-5.420265	47.256744	38.901580	14.982539	-10.309148	47.118290	43.790071
-0.195000	-1.782892	-2.032873	94.941017	0.155004	-0.262898	0.175616	111.699165	21.432653	29.169524	5.176418	28.954237	-11.722607	-14.034633	33.197855	9.935171	32.153295	25.547782	42.408329	5.853882	29.200592	32.576138	36.435449	-5.536456	48.175150	39.387383	16.366161	-10.420411	47.897995	44.568355
-0.185000	-1.782892	-2.032873	94.941017	0.157562	-0.265641	0.178370	112.937137	21.532252	29.705314	5.559866	30.033743	-11.413844	-13.899127	32.872923	9.891949	33.080072	26.475735	43.137667	5.883826	30.018570	33.543378	37.829885	-5.632507	49.158114	39.921713	17.683781	-10.536005	48.831256	45.369180
-0.175000	-1.782892	-2.032873	94.941017	0.159786	-0.268359	0.180857	114.106890	21.632943	30.104716	5.975705	31.033456	-11.126746	-13.780297	32.698898	9.829085	33.989880	27.385974	43.888040	5.924201	30.907801	34.573222	39.199566	-5.710665	50.221218	40.504412	18.926750	-10.656197	49.920317	46.187164
-0.165000	-1.782892	-2.032873	94.941017	0.161694	-0.271028	0.183086	115.194279	21.726757	30.363559	6.402017	31.939105	-10.888414	-13.694944	32.700380	9.753843	34.883099	28.290195	44.650627	5.980627	31.900696	35.682699	40.541327	-5.775260	51.377945	41.132053	20.091574	-10.784500	51.155914	47.013705
-0.155000	-1.782892	-2.032873	94.941017	0.163312	-0.273610	0.185059	116.180749	21.803476	30.484439	6.806887	32.746117	-10.721584	-13.658332	32.893019	9.675026	35.766434	29.198510	45.414524	6.057366	33.034269	36.868349	41.851470	-5.831443	52.632295	41.796358	21.175587	-10.925864	52.519864	47.836066
-0.145000	-1.782892	-2.032873	94.941017	0.164669	-0.276049	0.186785	117.050452	21.854019	30.476951	7.153539	33.452390	-10.638431	-13.679378	33.277903	9.602928	36.645866	30.112373	46.170503	6.155191	34.328466	38.103007	43.124579	-5.884314	53.974087	42.484836	22.173718	-11.084302	53.992431	48.637134
-0.135000	-1.782892	-2.032873	94.941017	0.165797	-0.278276	0.188280	117.798008	21.873771	30.357111	7.407338	34.051234	-10.637739	-13.758156	33.840675	9.548902	37.518109	31.024309	46.915639	6.270492	35.766841	39.346682	44.355276	-5.938432	55.378365	43.184748	23.079954	-11.260797	55.557750	49.396093
